<svg viewBox="0 0 100 100" xmlns="http://www.w3.org/2000/svg">
  <rect width="100" height="100" rx="22" fill="#0C0E13"/>
  <path d="M 21.36 85.00 L 21.36 83.31 L 30.16 78.95 L 30.16 21.05 L 21.36 16.69 L 21.36 15.00 L 52.34 15.00 Q 59.66 15.00 65.49 16.76 Q 71.33 18.50 74.66 21.94 Q 78.01 25.39 78.01 30.69 Q 78.01 36.11 74.13 40.62 Q 70.27 45.13 62.94 47.03 Q 72.92 48.41 78.59 52.97 Q 84.25 57.52 84.25 64.63 Q 84.25 70.47 80.38 75.09 Q 76.52 79.70 69.89 82.35 Q 63.26 85.00 54.89 85.00 L 21.36 85.00 Z M 48.19 20.83 L 43.42 20.83 L 43.42 46.19 L 48.84 46.19 Q 56.05 46.19 60.13 42.91 Q 64.22 39.61 64.22 33.78 Q 64.22 20.83 48.19 20.83 Z M 52.12 51.59 L 43.42 51.59 L 43.42 79.17 L 52.87 79.17 Q 60.82 79.17 65.38 75.24 Q 69.94 71.31 69.94 65.28 Q 69.94 58.27 65.33 54.94 Q 60.72 51.59 52.12 51.59 Z" fill="#FFC233"/>
</svg>